<svg xmlns="http://www.w3.org/2000/svg" width="180" height="32" viewBox="0 0 180 32">
    <g fill="none" fill-rule="evenodd">
        <path fill="#091E45" d="M59.19 12.217L54.526 28.59h-4.924L43 3.85h5.426l3.887 17.435h.277L57.134 3.85h4.407l4.63 17.435h.277L70.3 3.85h5.391L69.074 28.59h-4.89l-4.717-16.372h-.276zM78.612 28.59V9.68h5.029v18.909H78.61zM81.134 7.04c-1.814 0-2.972-1.046-2.972-2.52 0-1.491 1.158-2.52 2.972-2.52 1.797 0 2.972 1.029 2.972 2.52 0 1.474-1.175 2.52-2.972 2.52zm6.444 21.549V9.68h4.873v3.034h.31c.882-2.125 2.817-3.445 5.634-3.445 4.233 0 6.514 2.571 6.514 7.097v12.223h-5.028v-11.04c0-2.606-1.123-3.978-3.508-3.978-2.333 0-3.767 1.629-3.767 4.115v10.903h-5.028zm21.062 0V9.68h4.873v3.034h.311c.881-2.125 2.817-3.445 5.633-3.445 4.233 0 6.514 2.571 6.514 7.097v12.223h-5.028v-11.04c0-2.606-1.123-3.978-3.508-3.978-2.332 0-3.766 1.629-3.766 4.115v10.903h-5.029zm29.305-15.498c-2.333 0-3.975 1.612-4.147 4.063h8.12c-.103-2.503-1.623-4.063-3.973-4.063zm4.078 10.115h4.682c-.76 3.565-4.043 5.794-8.708 5.794-5.806 0-9.228-3.634-9.228-9.771 0-6.155 3.49-9.96 9.158-9.96 5.616 0 8.934 3.548 8.934 9.548v1.526h-13.08v.257c.069 2.811 1.727 4.56 4.354 4.56 1.987 0 3.352-.703 3.888-1.954zm7.809 5.383V9.68h4.872v3.017h.311c.502-1.886 2.471-3.326 4.89-3.326.692 0 1.538.086 1.97.24v4.543c-.397-.154-1.572-.308-2.384-.308-2.748 0-4.631 1.611-4.631 4.268V28.59h-5.028zm13.822-13.355c0-3.583 3.18-5.965 7.931-5.965 4.838 0 7.69 2.005 7.966 5.622h-4.648c-.26-1.217-1.417-1.971-3.283-1.971-1.797 0-3.128.806-3.128 2.006 0 .925.812 1.491 2.575 1.885l3.576.772c3.698.806 5.357 2.348 5.357 5.177 0 3.771-3.404 6.24-8.398 6.24-5.028 0-8.07-2.04-8.415-5.674h4.908c.38 1.285 1.607 2.023 3.611 2.023 1.953 0 3.3-.806 3.3-2.023 0-.926-.725-1.492-2.401-1.852l-3.456-.771c-3.698-.806-5.495-2.554-5.495-5.469z"/>
        <g fill-rule="nonzero">
            <path fill="#7100FF" d="M3.444 15.889h25.26v14.96A1.15 1.15 0 0 1 27.556 32H4.593a1.15 1.15 0 0 1-1.149-1.15V15.888z"/>
            <path fill="#FFF" d="M25.26 12.437h3.444A2.299 2.299 0 0 1 31 14.738v9.206a2.299 2.299 0 0 1-2.296 2.302h-3.445a2.299 2.299 0 0 1-2.296-2.302v-9.206a2.299 2.299 0 0 1 2.296-2.301z"/>
            <path fill="#7100FF" d="M25.26 13.587a1.15 1.15 0 0 0-1.149 1.151v9.206c0 .636.514 1.151 1.148 1.151h3.445a1.15 1.15 0 0 0 1.148-1.15v-9.207a1.15 1.15 0 0 0-1.148-1.15h-3.445z"/>
            <path fill="#FFF" d="M18.37 12.437h3.445a2.299 2.299 0 0 1 2.296 2.301v9.206a2.299 2.299 0 0 1-2.296 2.302H18.37a2.299 2.299 0 0 1-2.296-2.302v-9.206a2.299 2.299 0 0 1 2.296-2.301z"/>
            <path fill="#7100FF" d="M18.37 13.587a1.15 1.15 0 0 0-1.148 1.151v9.206c0 .636.514 1.151 1.148 1.151h3.445a1.15 1.15 0 0 0 1.148-1.15v-9.207a1.15 1.15 0 0 0-1.148-1.15H18.37z"/>
            <path fill="#FFF" d="M0 23.944v-3.452a2.299 2.299 0 0 1 2.296-2.302h6.89a2.299 2.299 0 0 1 2.295 2.302v3.452a2.299 2.299 0 0 1-2.296 2.302H2.296A2.299 2.299 0 0 1 0 23.944z"/>
            <path fill="#7100FF" d="M1.148 23.944c0 .636.514 1.151 1.148 1.151h6.89a1.15 1.15 0 0 0 1.147-1.15v-3.453a1.15 1.15 0 0 0-1.148-1.15H2.296a1.15 1.15 0 0 0-1.148 1.15v3.452zM14.32.237l3.392.6a1.15 1.15 0 0 1 .932 1.332l-2.592 14.733-5.654-.999L12.99 1.17a1.148 1.148 0 0 1 1.33-.933zM5.171.234c.625-.11 1.22.308 1.33.934L9.094 15.9l-5.653 1L.848 2.166A1.15 1.15 0 0 1 1.78.834l3.392-.6z"/>
        </g>
    </g>
</svg>
