<svg xmlns="http://www.w3.org/2000/svg" width="129" height="23" viewBox="0 0 129 23">
    <g fill="none" fill-rule="nonzero">
        <path fill="#091E45" d="M42.607 8.661L39.29 20.536h-3.5L31.1 2.594h3.856l2.763 12.645h.196l3.23-12.645h3.132l3.291 12.645h.197l2.738-12.645h3.832L49.63 20.536h-3.475L42.803 8.66h-.196zm13.802 11.875V6.82h3.574v13.715H56.41zM58.202 4.77c-1.105 0-2.026-.92-2.026-2.077 0-1.156.921-2.064 2.026-2.064 1.118 0 2.027.908 2.027 2.064 0 1.157-.91 2.077-2.027 2.077zm4.58 15.766V6.82h3.463v2.201h.222c.626-1.542 2.001-2.5 4.003-2.5 3.009 0 4.63 1.866 4.63 5.148v8.866h-3.574v-8.008c0-1.89-.798-2.884-2.493-2.884-1.658 0-2.677 1.181-2.677 2.984v7.908h-3.574zm14.97 0V6.82h3.463v2.201h.22c.627-1.542 2.003-2.5 4.004-2.5 3.01 0 4.63 1.866 4.63 5.148v8.866h-3.573v-8.008c0-1.89-.799-2.884-2.493-2.884-1.658 0-2.678 1.181-2.678 2.984v7.908h-3.573zm20.827-11.24c-1.658 0-2.825 1.168-2.947 2.946h5.772c-.074-1.815-1.155-2.946-2.825-2.946zm2.898 7.336h3.328c-.528 2.573-2.873 4.202-6.19 4.202-4.125 0-6.557-2.636-6.557-7.087 0-4.464 2.48-7.224 6.509-7.224 3.991 0 6.349 2.574 6.349 6.925v1.107h-9.297v.187c.05 2.039 1.228 3.307 3.095 3.307 1.412 0 2.383-.51 2.763-1.417zm5.55 3.904V6.82h3.464V9.01h.22c.357-1.368 1.757-2.413 3.476-2.413.491 0 1.093.063 1.4.175v3.295c-.282-.112-1.117-.224-1.695-.224-1.952 0-3.29 1.168-3.29 3.096v7.597h-3.575zm9.824-9.686c0-2.599 2.26-4.327 5.637-4.327 3.439 0 5.465 1.455 5.661 4.078h-3.303c-.184-.883-1.007-1.43-2.333-1.43-1.278 0-2.223.585-2.223 1.455 0 .671.577 1.082 1.83 1.368l2.542.56c2.628.584 3.807 1.703 3.807 3.754 0 2.736-2.42 4.526-5.969 4.526-3.573 0-5.735-1.48-5.98-4.115h3.487c.27.932 1.142 1.467 2.567 1.467 1.388 0 2.346-.585 2.346-1.467 0-.672-.516-1.082-1.707-1.343l-2.457-.56c-2.628-.584-3.905-1.852-3.905-3.966z"/>
        <path fill="#7100FF" d="M2.434 11.5h17.849v10.679a.816.816 0 0 1-.811.821H3.245a.816.816 0 0 1-.811-.821V11.5z"/>
        <path fill="#FFF" d="M17.85 9.036h2.433c.896 0 1.623.735 1.623 1.643v6.571c0 .907-.727 1.643-1.623 1.643h-2.434a1.633 1.633 0 0 1-1.623-1.643v-6.571c0-.908.727-1.643 1.623-1.643z"/>
        <path fill="#7100FF" d="M17.85 9.857a.816.816 0 0 0-.812.822v6.571c0 .454.363.821.811.821h2.434a.816.816 0 0 0 .811-.821v-6.571a.816.816 0 0 0-.811-.822h-2.434z"/>
        <path fill="#FFF" d="M12.981 9.036h2.434c.896 0 1.623.735 1.623 1.643v6.571c0 .907-.727 1.643-1.623 1.643h-2.434a1.633 1.633 0 0 1-1.623-1.643v-6.571c0-.908.727-1.643 1.623-1.643z"/>
        <path fill="#7100FF" d="M12.981 9.857a.816.816 0 0 0-.811.822v6.571c0 .454.363.821.811.821h2.434a.816.816 0 0 0 .811-.821v-6.571a.816.816 0 0 0-.81-.822H12.98z"/>
        <path fill="#FFF" d="M0 17.25v-2.464c0-.908.726-1.643 1.623-1.643H6.49c.896 0 1.622.735 1.622 1.643v2.464c0 .907-.726 1.643-1.622 1.643H1.623A1.633 1.633 0 0 1 0 17.25z"/>
        <path fill="#7100FF" d="M.811 17.25c0 .454.364.821.812.821H6.49a.816.816 0 0 0 .81-.821v-2.464a.816.816 0 0 0-.81-.822H1.623a.816.816 0 0 0-.812.822v2.464zM10.12.328l2.396.427a.82.82 0 0 1 .658.952l-1.831 10.516-3.995-.713L9.179.994a.812.812 0 0 1 .94-.666zM3.654.326a.812.812 0 0 1 .94.666L6.426 11.51l-3.995.713L.599 1.705a.82.82 0 0 1 .658-.951L3.654.326z"/>
    </g>
</svg>
