<svg xmlns="http://www.w3.org/2000/svg" width="22" height="23" viewBox="0 0 22 23">
    <g fill="none" fill-rule="nonzero">
        <path fill="#7100FF" d="M2.434 11.5h17.849v10.679a.816.816 0 0 1-.811.821H3.245a.816.816 0 0 1-.811-.821V11.5z"/>
        <path fill="#FFF" d="M17.85 9.036h2.433c.896 0 1.623.735 1.623 1.643v6.571c0 .907-.727 1.643-1.623 1.643h-2.434a1.633 1.633 0 0 1-1.623-1.643v-6.571c0-.908.727-1.643 1.623-1.643z"/>
        <path fill="#7100FF" d="M17.85 9.857a.816.816 0 0 0-.812.822v6.571c0 .454.363.821.811.821h2.434a.816.816 0 0 0 .811-.821v-6.571a.816.816 0 0 0-.811-.822h-2.434z"/>
        <path fill="#FFF" d="M12.981 9.036h2.434c.896 0 1.623.735 1.623 1.643v6.571c0 .907-.727 1.643-1.623 1.643h-2.434a1.633 1.633 0 0 1-1.623-1.643v-6.571c0-.908.727-1.643 1.623-1.643z"/>
        <path fill="#7100FF" d="M12.981 9.857a.816.816 0 0 0-.811.822v6.571c0 .454.363.821.811.821h2.434a.816.816 0 0 0 .811-.821v-6.571a.816.816 0 0 0-.81-.822H12.98z"/>
        <path fill="#FFF" d="M0 17.25v-2.464c0-.908.726-1.643 1.623-1.643H6.49c.896 0 1.622.735 1.622 1.643v2.464c0 .907-.726 1.643-1.622 1.643H1.623A1.633 1.633 0 0 1 0 17.25z"/>
        <path fill="#7100FF" d="M.811 17.25c0 .454.364.821.812.821H6.49a.816.816 0 0 0 .81-.821v-2.464a.816.816 0 0 0-.81-.822H1.623a.816.816 0 0 0-.812.822v2.464zM10.12.328l2.396.427a.82.82 0 0 1 .658.952l-1.831 10.516-3.995-.713L9.179.994a.812.812 0 0 1 .94-.666zM3.654.326a.812.812 0 0 1 .94.666L6.426 11.51l-3.995.713L.599 1.705a.82.82 0 0 1 .658-.951L3.654.326z"/>
    </g>
</svg>
